<svg preserveAspectRatio="xMidYMid meet" data-bbox="0 0 53.25 53.25" xmlns="http://www.w3.org/2000/svg" viewBox="0 0 53.25 53.25" height="54" width="54" data-type="color" role="presentation" aria-hidden="true" aria-label="">
    <g>
        <path fill="#ffffff" d="M26.625 53.25a26.543 26.543 0 0 1-18.827-7.798A26.536 26.536 0 0 1 0 26.625 26.536 26.536 0 0 1 7.798 7.798 26.535 26.535 0 0 1 26.625 0a26.536 26.536 0 0 1 18.827 7.798 26.537 26.537 0 0 1 7.798 18.827 26.537 26.537 0 0 1-7.798 18.827 26.537 26.537 0 0 1-18.827 7.798Zm0-52.362C12.433.888.887 12.433.887 26.625c0 14.192 11.546 25.737 25.738 25.737s25.737-11.545 25.737-25.737C52.362 12.433 40.817.887 26.625.887Z" data-color="1"></path>
        <path fill="#ffffff" d="M32.51 27.718a.444.444 0 0 1-.425-.572l.353-1.174a3.185 3.185 0 0 0-.166-2.276l-4.692-9.994a4.059 4.059 0 0 1-.325-1.03l-.434-2.48a.443.443 0 1 1 .874-.153l.434 2.48c.048.278.134.55.254.806l4.692 9.994a4.07 4.07 0 0 1 .212 2.91l-.353 1.173a.443.443 0 0 1-.424.316Z" data-color="1"></path>
        <path fill="#ffffff" d="M20.74 27.717a.443.443 0 0 1-.424-.316l-.354-1.172a4.072 4.072 0 0 1 .213-2.91l4.691-9.995c.12-.256.206-.527.255-.806l.434-2.48a.443.443 0 1 1 .874.153l-.435 2.48a4.058 4.058 0 0 1-.325 1.03l-4.692 9.995a3.185 3.185 0 0 0-.166 2.276l.354 1.173a.443.443 0 0 1-.424.572Z" data-color="1"></path>
        <path fill="#ffffff" d="M26.625 29.493A3.628 3.628 0 0 1 23 25.869a3.628 3.628 0 0 1 3.624-3.624 3.628 3.628 0 0 1 3.623 3.624 3.628 3.628 0 0 1-3.623 3.624Zm0-6.361a2.74 2.74 0 0 0-2.736 2.736 2.74 2.74 0 0 0 2.736 2.737 2.74 2.74 0 0 0 2.736-2.737 2.74 2.74 0 0 0-2.736-2.736Z" data-color="1"></path>
        <path fill="#ffffff" d="M39.118 35.335a.443.443 0 0 1-.217-.831c.835-.468 1.39-2.07 1.524-4.394a.15.15 0 0 0-.06-.131.15.15 0 0 0-.142-.025l-6.408 2.08a.444.444 0 0 1-.274-.844l6.408-2.08a1.041 1.041 0 0 1 1.362 1.052c-.109 1.89-.54 4.313-1.977 5.117a.442.442 0 0 1-.216.056Z" data-color="1"></path>
        <path fill="#ffffff" d="M14.13 35.335a.444.444 0 0 1-.216-.057c-1.436-.804-1.868-3.227-1.977-5.117a1.043 1.043 0 0 1 1.362-1.052l6.408 2.08a.443.443 0 1 1-.274.844l-6.408-2.08a.15.15 0 0 0-.142.025.152.152 0 0 0-.06.131c.134 2.325.69 3.927 1.524 4.394a.443.443 0 0 1-.216.832Z" data-color="1"></path>
        <path fill="#ffffff" d="m28.224 42.52 4.197-4.596a3.85 3.85 0 0 1 2.589-1.245l4.542-.3a.341.341 0 0 1 .33.487l-.175.367a10.372 10.372 0 0 1-9.599 5.896l-1.64-.038a.34.34 0 0 1-.244-.57Z" data-color="1"></path>
        <path fill="#ffffff" d="M27.049 40.34v-5.616c0-.48.2-.94.552-1.269l3.353-3.13a.36.36 0 0 1 .602.207l.66 4.186a2.71 2.71 0 0 1-.83 2.406l-3.73 3.48a.361.361 0 0 1-.607-.265Z" data-color="1"></path>
        <path fill="#ffffff" d="m25.025 42.52-4.197-4.596a3.85 3.85 0 0 0-2.589-1.245l-4.542-.3a.341.341 0 0 0-.33.487l.175.367a10.372 10.372 0 0 0 9.599 5.896l1.64-.038a.34.34 0 0 0 .244-.57Z" data-color="1"></path>
        <path fill="#ffffff" d="M26.2 40.34v-5.616c0-.48-.2-.94-.551-1.269l-3.354-3.13a.36.36 0 0 0-.602.207l-.66 4.186c-.14.89.17 1.792.83 2.406l3.73 3.48c.231.214.607.05.607-.265Z" data-color="1"></path>
    </g>
</svg>
