<svg xmlns="http://www.w3.org/2000/svg" id="Capa_2" data-name="Capa 2" viewBox="0 0 221.82 53.71"><defs><style>      .cls-1 {        fill: #d94c04;        stroke-width: 0px;      }    </style></defs><g id="Capa_1-2" data-name="Capa 1"><g><g><path class="cls-1" d="M63.78,34.14c.21.32.51.56.88.72.38.16.81.24,1.3.24.62,0,1.18-.13,1.68-.38.5-.25.89-.61,1.19-1.07.29-.46.44-1,.44-1.6l.4,1.52c0,.74-.22,1.36-.67,1.84-.45.49-.99.85-1.64,1.09-.65.24-1.29.35-1.93.35-.71,0-1.37-.15-1.98-.44-.61-.29-1.11-.72-1.48-1.28-.37-.56-.56-1.23-.56-2.02,0-1.13.4-2.03,1.2-2.72.8-.68,1.91-1.02,3.35-1.02.84,0,1.54.1,2.11.29.56.19,1.01.41,1.35.66.34.24.56.44.68.59v1.19c-.59-.4-1.2-.69-1.82-.87-.62-.18-1.29-.27-2-.27-.66,0-1.19.08-1.6.25-.41.17-.72.4-.92.71-.2.3-.3.67-.3,1.09s.1.82.32,1.14ZM62.18,26.15c.44-.32,1.04-.64,1.81-.96.77-.32,1.69-.48,2.77-.48.91,0,1.71.14,2.39.42.68.28,1.21.68,1.59,1.2.38.52.57,1.16.57,1.92v8.33h-2.02v-8.06c0-.4-.07-.74-.2-1-.14-.26-.32-.47-.57-.62s-.53-.26-.85-.33c-.32-.07-.66-.1-1.01-.1-.57,0-1.09.07-1.55.2-.46.13-.85.29-1.17.48-.32.19-.57.35-.76.48l-.99-1.49Z"></path><path class="cls-1" d="M76.72,16.89v19.7h-2.02v-19.7h2.02Z"></path><path class="cls-1" d="M80.93,19.18c.28-.27.6-.4.97-.4s.72.13.99.4c.27.27.4.6.4.99s-.13.69-.4.97c-.27.28-.6.42-.99.42s-.69-.14-.97-.42c-.28-.28-.42-.6-.42-.97s.14-.72.42-.99ZM82.91,24.97v11.62h-2.02v-11.62h2.02Z"></path><path class="cls-1" d="M88.3,34.14c.21.32.51.56.88.72.38.16.81.24,1.3.24.62,0,1.18-.13,1.68-.38.5-.25.89-.61,1.19-1.07.29-.46.44-1,.44-1.6l.4,1.52c0,.74-.22,1.36-.67,1.84-.45.49-.99.85-1.64,1.09-.65.24-1.29.35-1.93.35-.71,0-1.37-.15-1.98-.44s-1.11-.72-1.48-1.28c-.37-.56-.56-1.23-.56-2.02,0-1.13.4-2.03,1.2-2.72.8-.68,1.91-1.02,3.35-1.02.84,0,1.54.1,2.11.29.56.19,1.01.41,1.35.66.34.24.56.44.68.59v1.19c-.59-.4-1.2-.69-1.82-.87-.62-.18-1.29-.27-2-.27-.66,0-1.19.08-1.6.25-.41.17-.72.4-.92.71-.2.3-.3.67-.3,1.09s.1.82.32,1.14ZM86.7,26.15c.44-.32,1.04-.64,1.81-.96.77-.32,1.69-.48,2.77-.48.91,0,1.71.14,2.39.42.68.28,1.21.68,1.59,1.2.38.52.57,1.16.57,1.92v8.33h-2.02v-8.06c0-.4-.07-.74-.2-1-.14-.26-.32-.47-.57-.62s-.53-.26-.85-.33c-.32-.07-.66-.1-1.01-.1-.57,0-1.09.07-1.55.2-.46.13-.85.29-1.17.48-.32.19-.57.35-.76.48l-.99-1.49Z"></path><path class="cls-1" d="M106.05,27.34c-.42-.49-1.04-.73-1.84-.73-.59,0-1.11.12-1.55.37-.45.24-.79.59-1.04,1.02-.24.44-.37.94-.37,1.52v7.07h-2.02v-11.62h2.02v1.82c.39-.71.87-1.23,1.45-1.57.58-.34,1.25-.51,2.01-.51,1.23,0,2.2.41,2.92,1.23.72.82,1.07,1.92,1.07,3.32v7.32h-2.02v-7.07c0-.96-.21-1.68-.63-2.17Z"></path><path class="cls-1" d="M111.73,26.86v-1.89h10.1l-7.2,9.72h6.69v1.89h-10.35l7.2-9.72h-6.44Z"></path><path class="cls-1" d="M125.33,34.14c.21.32.51.56.88.72.38.16.81.24,1.3.24.62,0,1.18-.13,1.68-.38.5-.25.89-.61,1.19-1.07.29-.46.44-1,.44-1.6l.4,1.52c0,.74-.22,1.36-.67,1.84-.45.49-.99.85-1.64,1.09-.65.24-1.29.35-1.93.35-.71,0-1.37-.15-1.98-.44-.61-.29-1.11-.72-1.48-1.28-.37-.56-.56-1.23-.56-2.02,0-1.13.4-2.03,1.2-2.72.8-.68,1.91-1.02,3.35-1.02.84,0,1.54.1,2.11.29.56.19,1.01.41,1.35.66.34.24.56.44.68.59v1.19c-.59-.4-1.2-.69-1.82-.87-.62-.18-1.29-.27-2-.27-.66,0-1.19.08-1.6.25-.41.17-.72.4-.92.71-.2.3-.3.67-.3,1.09s.1.82.32,1.14ZM123.72,26.15c.44-.32,1.04-.64,1.81-.96.77-.32,1.69-.48,2.77-.48.91,0,1.71.14,2.39.42.68.28,1.21.68,1.59,1.2.38.52.57,1.16.57,1.92v8.33h-2.02v-8.06c0-.4-.07-.74-.2-1-.14-.26-.32-.47-.57-.62s-.53-.26-.85-.33c-.32-.07-.66-.1-1.01-.1-.57,0-1.09.07-1.55.2-.46.13-.85.29-1.17.48-.32.19-.57.35-.76.48l-.99-1.49Z"></path><path class="cls-1" d="M145.25,32.92c.35.62.82,1.12,1.41,1.48.6.36,1.28.54,2.03.54.62,0,1.21-.1,1.76-.29.55-.19,1.02-.45,1.43-.78.4-.33.69-.68.86-1.05v2.53c-.4.47-.98.84-1.73,1.1s-1.52.39-2.31.39c-1.13,0-2.15-.26-3.06-.78-.91-.52-1.63-1.24-2.16-2.16-.53-.92-.8-1.96-.8-3.12s.27-2.22.8-3.13c.53-.91,1.25-1.62,2.16-2.15.91-.52,1.93-.78,3.06-.78.79,0,1.56.13,2.31.39s1.33.63,1.73,1.1v2.53c-.17-.39-.45-.74-.86-1.06-.4-.32-.88-.58-1.43-.77-.55-.19-1.13-.29-1.76-.29-.76,0-1.44.18-2.03.53-.6.35-1.07.85-1.41,1.48s-.52,1.35-.52,2.16.17,1.52.52,2.15Z"></path><path class="cls-1" d="M157.92,36.59h-2.02v-11.62h2.02v11.62ZM160.7,26.75c-.22-.09-.5-.14-.83-.14-.51,0-.9.13-1.19.38s-.48.6-.59,1.04c-.11.44-.16.93-.16,1.49h-.91c0-.93.16-1.75.49-2.46s.75-1.28,1.28-1.71c.52-.42,1.05-.63,1.59-.63.42,0,.81.06,1.17.16.36.11.69.32,1,.64l-1.11,1.67c-.27-.2-.51-.35-.73-.44Z"></path><path class="cls-1" d="M165.81,36.07c-.83-.51-1.48-1.22-1.94-2.13-.46-.91-.69-1.96-.69-3.16s.24-2.27.72-3.18,1.15-1.62,2.02-2.12c.87-.51,1.87-.76,3.02-.76s2.13.24,2.94.72c.82.48,1.44,1.17,1.88,2.06.44.89.66,1.95.66,3.18,0,.12,0,.24-.01.37s-.01.21-.01.24h-9.93v-1.72h8.33l-.81,1.16c.05-.08.1-.21.15-.39.05-.18.08-.32.08-.44,0-.69-.14-1.29-.42-1.79-.28-.51-.66-.9-1.15-1.19-.49-.29-1.06-.43-1.72-.43-.77,0-1.44.16-1.98.49s-.97.8-1.26,1.41-.45,1.37-.47,2.26c0,.91.14,1.68.43,2.32.29.64.71,1.13,1.26,1.47.56.34,1.23.5,2.02.5s1.49-.17,2.1-.52c.61-.35,1.12-.87,1.54-1.58l1.64,1.04c-.61.98-1.37,1.71-2.29,2.21-.92.5-2,.74-3.25.74-1.08,0-2.03-.26-2.87-.77Z"></path><path class="cls-1" d="M178.42,34.14c.21.32.51.56.88.72.38.16.81.24,1.3.24.62,0,1.18-.13,1.68-.38.5-.25.89-.61,1.19-1.07.29-.46.44-1,.44-1.6l.4,1.52c0,.74-.22,1.36-.67,1.84-.45.49-.99.85-1.64,1.09-.65.24-1.29.35-1.93.35-.71,0-1.37-.15-1.98-.44-.61-.29-1.11-.72-1.48-1.28-.37-.56-.56-1.23-.56-2.02,0-1.13.4-2.03,1.2-2.72.8-.68,1.91-1.02,3.35-1.02.84,0,1.54.1,2.11.29.56.19,1.01.41,1.35.66.34.24.56.44.68.59v1.19c-.59-.4-1.2-.69-1.82-.87-.62-.18-1.29-.27-2-.27-.66,0-1.19.08-1.6.25-.41.17-.72.4-.92.71-.2.3-.3.67-.3,1.09s.1.82.32,1.14ZM176.81,26.15c.44-.32,1.04-.64,1.81-.96.77-.32,1.69-.48,2.77-.48.91,0,1.71.14,2.39.42.68.28,1.21.68,1.59,1.2.38.52.57,1.16.57,1.92v8.33h-2.02v-8.06c0-.4-.07-.74-.2-1-.14-.26-.32-.47-.57-.62s-.53-.26-.85-.33c-.32-.07-.66-.1-1.01-.1-.57,0-1.09.07-1.55.2-.46.13-.85.29-1.17.48-.32.19-.57.35-.76.48l-.99-1.49Z"></path><path class="cls-1" d="M193.38,24.97v1.89h-5.81v-1.89h5.81ZM191.49,20.93v15.66h-2.02v-15.66h2.02Z"></path><path class="cls-1" d="M195.82,19.18c.28-.27.6-.4.97-.4s.72.13.99.4c.27.27.4.6.4.99s-.13.69-.4.97c-.27.28-.6.42-.99.42s-.69-.14-.97-.42c-.28-.28-.42-.6-.42-.97s.14-.72.42-.99ZM197.8,24.97v11.62h-2.02v-11.62h2.02Z"></path><path class="cls-1" d="M202.35,24.97l3.28,8.21,3.28-8.21h2.27l-5.56,12.5-5.56-12.5h2.27Z"></path><path class="cls-1" d="M214.3,34.14c.21.32.51.56.88.72.38.16.81.24,1.3.24.62,0,1.18-.13,1.68-.38.5-.25.89-.61,1.19-1.07.29-.46.44-1,.44-1.6l.4,1.52c0,.74-.22,1.36-.67,1.84-.45.49-.99.85-1.64,1.09s-1.29.35-1.93.35c-.71,0-1.37-.15-1.98-.44s-1.11-.72-1.48-1.28c-.37-.56-.56-1.23-.56-2.02,0-1.13.4-2.03,1.2-2.72.8-.68,1.91-1.02,3.35-1.02.84,0,1.54.1,2.11.29.56.19,1.01.41,1.35.66.34.24.56.44.68.59v1.19c-.59-.4-1.2-.69-1.82-.87-.62-.18-1.29-.27-2-.27-.66,0-1.19.08-1.6.25-.41.17-.72.4-.92.71-.2.3-.3.67-.3,1.09s.1.82.32,1.14ZM212.7,26.15c.44-.32,1.04-.64,1.81-.96.77-.32,1.69-.48,2.77-.48.91,0,1.71.14,2.39.42.68.28,1.21.68,1.59,1.2.38.52.57,1.16.57,1.92v8.33h-2.02v-8.06c0-.4-.07-.74-.2-1-.14-.26-.32-.47-.57-.62s-.53-.26-.85-.33c-.32-.07-.66-.1-1.01-.1-.57,0-1.09.07-1.55.2-.46.13-.85.29-1.17.48-.32.19-.57.35-.76.48l-.99-1.49Z"></path></g><path class="cls-1" d="M44.29,38.56l-3.57-2.71c-1.16,1.35-2.41,2.52-3.72,3.5l-12.51-26.82h-1.01l-12.26,25.94c-.26-.23-.52-.46-.77-.71-3.79-3.7-5.68-8.3-5.68-13.83,0-3.65.85-6.94,2.54-9.87,1.69-2.93,4.08-5.26,7.16-6.99,3.08-1.73,6.43-2.6,10.04-2.6,3.31,0,6.34.66,9.1,1.99,2.76,1.32,5.13,3.27,7.1,5.84l3.57-2.74c-2.18-3.02-4.97-5.36-8.38-7.04-3.41-1.67-7.23-2.51-11.46-2.51-7,0-12.83,2.26-17.48,6.79C2.32,11.32,0,16.9,0,23.53s1.92,11.68,5.76,16.14c1.04,1.2,2.17,2.26,3.39,3.19l-5.13,10.86h4.59l4.09-8.64c3.4,1.68,7.34,2.52,11.81,2.52,3.95,0,7.55-.71,10.79-2.12l3.94,8.25h4.45l-4.77-10.22c2.04-1.35,3.83-2.99,5.36-4.93ZM24.79,43.3c-3.8,0-7.17-.81-10.11-2.41l.35-.73,8.94-18.88,8.8,18.88.64,1.33c-2.62,1.2-5.49,1.81-8.61,1.81Z"></path></g></g></svg>